<svg width="64" height="63" viewBox="0 0 64 63" fill="none" xmlns="http://www.w3.org/2000/svg">
<rect width="64" height="63" fill="white"/>
<path fill-rule="evenodd" clip-rule="evenodd" d="M48.6109 29.811L48.6773 29.8818L34.3151 29.6393L34.3151 14.567L34.3939 14.6511C34.3418 14.2306 34.3151 13.8032 34.3151 13.3701C34.3151 7.09057 39.9415 2 46.882 2C47.0867 2 47.2903 2.00443 47.4926 2.01318L47.4805 2.00006L62.4411 2.00006L61.8427 17.5592L61.8144 17.5285C61.8332 17.7858 61.8427 18.0455 61.8427 18.3071C61.8427 24.6693 56.2163 29.8268 49.2757 29.8268C49.0527 29.8268 48.831 29.8215 48.6109 29.811Z" fill="#022346"/>
<path fill-rule="evenodd" clip-rule="evenodd" d="M62.4411 61L47.4805 61L47.4927 60.9867C47.2904 60.9955 47.0868 60.9999 46.882 60.9999C39.9415 60.9999 34.3151 55.9094 34.3151 49.6298C34.3151 49.1968 34.3418 48.7694 34.3939 48.3489L34.3151 48.433L34.3151 33.3607L48.6773 33.1182L48.611 33.1889C48.8311 33.1784 49.0527 33.1731 49.2757 33.1731C56.2163 33.1731 61.8427 38.3306 61.8427 44.6928C61.8427 44.9545 61.8332 45.2142 61.8144 45.4715L61.8427 45.4409L62.4411 61Z" fill="#79CA2D"/>
<path fill-rule="evenodd" clip-rule="evenodd" d="M15.8302 29.811L15.7638 29.8818L30.126 29.6393L30.126 14.567L30.0471 14.6512C30.0992 14.2307 30.126 13.8032 30.126 13.3701C30.126 7.09057 24.4995 2 17.559 2C17.3543 2 17.1508 2.00443 16.9485 2.01318L16.9606 2.00006L1.99996 2.00006L2.59839 17.5592L2.62652 17.5287C2.60779 17.7859 2.59828 18.0455 2.59828 18.3071C2.59828 24.6693 8.2247 29.8268 15.1652 29.8268C15.3883 29.8268 15.61 29.8215 15.8302 29.811Z" fill="#79CA2D"/>
<path fill-rule="evenodd" clip-rule="evenodd" d="M1.99996 61L16.9606 61L16.9484 60.9867C17.1507 60.9955 17.3543 60.9999 17.559 60.9999C24.4995 60.9999 30.126 55.9094 30.126 49.6298C30.126 49.1967 30.0992 48.7693 30.0471 48.3489L30.126 48.433L30.126 33.3607L15.7638 33.1182L15.8301 33.1889C15.6099 33.1784 15.3883 33.1731 15.1652 33.1731C8.2247 33.1731 2.59828 38.3307 2.59828 44.6928C2.59828 44.9545 2.6078 45.2141 2.62653 45.4714L2.59839 45.4409L1.99996 61Z" fill="#022346"/>
<path fill-rule="evenodd" clip-rule="evenodd" d="M19.998 12.2078L18.689 14.826C18.547 14.7009 18.386 14.5968 18.2109 14.5188L17.9833 12.7451L17.7729 14.385C17.6668 14.3664 17.5575 14.3567 17.4461 14.3567C17.3803 14.3567 17.3153 14.3601 17.2512 14.3667L17.0432 12.7451L16.8228 14.4625C16.5925 14.5434 16.3826 14.6679 16.2032 14.826L14.8941 12.2078V4.68628L14.0882 12.2078L15.6666 15.6278C15.6605 15.6456 15.6547 15.6635 15.6491 15.6815L12.745 14.6255L9.79015 11.6706V8.17843L8.98427 11.6706L11.9392 14.8941L14.8832 16.3661L10.8647 17.3117L7.37256 23.4901L10.8647 18.3862L15.6739 16.8675C15.6855 16.8998 15.6978 16.9318 15.711 16.9633L11.9392 19.7293V25.6391L13.5509 29.9372L12.4764 25.3705V19.998L16.0221 17.4653C16.1996 17.6709 16.4209 17.8376 16.6715 17.9511C15.1085 18.3096 13.9539 19.5712 13.9539 21.0725C13.9539 22.557 14.9895 23.9939 16.4948 24.4304L17.5804 25.3706L18.7648 24.3449C20.1156 23.876 21.0726 22.7079 21.0726 21.3411C21.0726 19.7763 19.9219 18.2644 18.2833 17.9213C18.5082 17.8093 18.7074 17.6536 18.87 17.4653L22.4157 19.998V25.3705L21.3412 29.9372L22.9529 25.6391V19.7293L19.1811 16.9633C19.1943 16.9318 19.2067 16.8999 19.2182 16.8675L24.0274 18.3862L27.5196 23.4901L24.0274 17.3117L20.0089 16.3661L22.9529 14.8941L25.9078 11.6706L25.102 8.17843V11.6706L22.1471 14.6255L19.243 15.6815C19.2375 15.6635 19.2316 15.6455 19.2255 15.6277L20.8039 12.2078L19.998 4.68628V12.2078Z" fill="white"/>
<path fill-rule="evenodd" clip-rule="evenodd" d="M45.1502 9.11863C44.6603 8.47043 43.7011 7.4408 43.0999 7.64118C42.4552 7.85608 40.6823 7.73072 39.8764 7.64118C39.4287 7.19346 39.178 6.40549 41.7568 6.83529H43.3686C43.7267 6.83529 44.658 7.15764 45.5176 8.44705C45.5733 8.50279 45.6296 8.55009 45.6859 8.59001C46.2324 8.16377 46.9199 7.90982 47.6666 7.90982C48.4235 7.90982 49.1194 8.17064 49.6694 8.6073C49.7339 8.56394 49.7987 8.51106 49.8627 8.44706C50.7223 7.15765 51.6536 6.8353 52.0117 6.8353H53.6235C56.2023 6.4055 55.9516 7.19347 55.5039 7.64118C54.698 7.73073 52.9251 7.85609 52.2804 7.64118C51.6697 7.43764 50.6896 8.5033 50.2073 9.14908C50.6351 9.69616 50.8902 10.385 50.8902 11.1334C50.8902 11.4406 50.8472 11.7377 50.7669 12.0192C49.891 11.4612 48.8214 11.1333 47.6667 11.1333C46.5119 11.1333 45.4423 11.4612 44.5664 12.0192C44.4861 11.7377 44.4431 11.4406 44.4431 11.1334C44.4431 10.371 44.7077 9.6705 45.1502 9.11863ZM47.398 25.102V21.0725V14.0882C47.4875 13.3719 47.2368 12.0467 45.5176 12.4765C43.7984 12.9063 43.3686 13.3719 43.3686 13.551H43.0999C42.6522 13.1928 41.5419 12.369 40.6823 11.9392C39.8227 11.5094 38.1751 12.4765 37.4588 13.0137C37.2797 13.1033 37.0289 13.3898 37.4588 13.8196C37.8886 14.2494 38.5333 13.9987 38.8019 13.8196C39.0705 13.4614 39.8227 12.8525 40.6823 13.2823C41.5419 13.7122 42.4731 14.715 42.8313 15.1627L42.0254 17.0431H40.6823C40.145 16.9536 38.9093 16.882 38.2646 17.3118C37.6199 17.7416 38.3542 18.2072 38.8019 18.3863H39.8764C40.6823 18.2967 42.294 18.1714 42.294 18.3863C42.0791 19.031 42.2045 20.2667 42.294 20.8039C41.2195 20.589 40.7718 20.8935 40.6823 21.0725C39.8764 22.0575 38.3721 24.1886 38.8019 24.8333C39.2317 25.478 39.8764 24.9229 40.145 24.5647L41.2195 22.4157C41.3091 22.2366 41.5956 21.8784 42.0254 21.8784C42.4552 21.8784 42.7418 22.0575 42.8313 22.1471C43.0999 22.5948 44.0133 23.8125 45.5176 25.102C47.0219 26.3914 47.398 25.6392 47.398 25.102ZM47.9823 21.0725V25.102C47.9823 25.6392 48.3584 26.3914 49.8627 25.102C51.367 23.8125 52.2804 22.5948 52.549 22.1471C52.6385 22.0575 52.9251 21.8784 53.3549 21.8784C53.7847 21.8784 54.0712 22.2366 54.1607 22.4157L55.2353 24.5647C55.5039 24.9229 56.1486 25.478 56.5784 24.8333C57.0082 24.1886 55.5039 22.0575 54.698 21.0725C54.6085 20.8935 54.1607 20.589 53.0862 20.8039C53.1758 20.2667 53.3011 19.031 53.0862 18.3863C53.0862 18.1714 54.698 18.2967 55.5039 18.3863H56.5784C57.0261 18.2072 57.7603 17.7416 57.1156 17.3118C56.4709 16.882 55.2353 16.9536 54.698 17.0431H53.3549L52.549 15.1627C52.9072 14.715 53.8384 13.7122 54.698 13.2824C55.5576 12.8526 56.3098 13.4614 56.5784 13.8196C56.847 13.9987 57.4917 14.2494 57.9215 13.8196C58.3513 13.3898 58.1006 13.1033 57.9215 13.0137C57.2052 12.4765 55.5576 11.5094 54.698 11.9392C53.8384 12.369 52.7281 13.1928 52.2804 13.551H52.0117C52.0117 13.3719 51.5819 12.9063 49.8627 12.4765C48.1435 12.0467 47.8928 13.3719 47.9823 14.0882V21.0725Z" fill="white"/>
<path fill-rule="evenodd" clip-rule="evenodd" d="M14.8344 45.8261C13.7291 45.7566 11.1869 46.1597 9.86048 48.3281C9.65323 48.884 9.44598 49.7875 10.275 48.9535C10.8276 48.1196 12.3889 46.4516 14.2127 46.4516H14.9932C15.1551 47.0762 15.3431 47.7622 15.4203 47.922C14.0462 48.0456 12.9692 49.207 12.9692 50.6215V50.413C12.7619 50.552 12.1816 50.8717 11.5185 51.0385C11.104 51.108 10.3579 51.4972 10.6895 52.4979L10.0677 54.3744L11.5185 57.9188V56.8763L10.8967 55.2084L11.5185 51.8725C11.6566 51.7335 12.1402 51.4138 12.9692 51.247V50.6215C12.9692 51.3711 13.2717 52.0497 13.7606 52.5403L16.3854 56.1993C16.5509 56.4299 16.8922 56.4299 17.0576 56.1993L19.75 52.4462C20.1861 51.9646 20.452 51.3243 20.452 50.6215V51.247C21.281 51.4138 21.7645 51.7335 21.9027 51.8725L22.5245 55.2084L21.9027 56.8763V57.9188L23.3534 54.3744L22.7317 52.4979C23.0633 51.4972 22.3172 51.108 21.9027 51.0385C21.2395 50.8717 20.6592 50.552 20.452 50.413V50.6215C20.452 49.207 19.3749 48.0456 18.0009 47.922C18.0781 47.7622 18.2661 47.0762 18.4279 46.4516H19.2085C21.0323 46.4516 22.5935 48.1196 23.1462 48.9535C23.9752 49.7875 23.7679 48.884 23.5607 48.3281C22.2343 46.1597 19.6921 45.7566 18.5868 45.8261C18.9183 44.8675 18.8631 44.5927 18.794 44.5752L21.281 43.5327V42.6987C21.1152 41.0307 21.7645 40.1968 22.11 39.9883C23.1047 38.8207 22.2481 39.0848 21.6955 39.3628C20.8665 40.1968 20.5211 42.0732 20.452 42.9072L18.6158 43.7282C18.5868 43.6624 18.5544 43.5985 18.5189 43.5365L18.3989 43.1743C18.8786 42.9362 19.2085 42.4392 19.2085 41.8647C19.2085 41.4942 19.0713 41.156 18.8452 40.8986C18.8281 40.8717 18.811 40.8462 18.794 40.8223L18.5868 40.4053L18.3795 39.7798C19.2085 39.1543 16.7215 37.4863 17.3433 38.3203C17.8407 38.9875 17.6887 39.4323 17.5505 39.5713H15.8707C15.7325 39.4323 15.5805 38.9875 16.0779 38.3203C16.6996 37.4863 14.2127 39.1543 15.0417 39.7798L14.8344 40.4053L14.6272 40.8223C14.5897 40.8751 14.5515 40.9356 14.5148 41.0023C14.3386 41.2439 14.2346 41.5421 14.2346 41.8647C14.2346 42.4317 14.5559 42.9232 15.0254 43.1648L14.8664 43.6446C14.8514 43.6748 14.8372 43.7054 14.8236 43.7363L12.9692 42.9072C12.9001 42.0732 12.5547 40.1968 11.7257 39.3628C11.173 39.0848 10.3164 38.8207 11.3112 39.9883C11.6566 40.1968 12.306 41.0308 12.1402 42.6987V43.5327L14.6272 44.5752C14.5581 44.5927 14.5028 44.8675 14.8344 45.8261ZM15.4894 47.9166C15.4782 47.9173 15.4671 47.9181 15.4561 47.919L15.4562 47.9111L15.4894 47.9166ZM17.9318 47.9166C17.9429 47.9173 17.954 47.9181 17.9651 47.919L17.965 47.9111L17.9318 47.9166Z" fill="white"/>
<path fill-rule="evenodd" clip-rule="evenodd" d="M42.8991 34.4176C43.4041 35.654 44.8349 36.9467 45.5176 37.4588C46.0553 36.7419 46.8794 36.5979 47.398 36.6218C47.9165 36.5979 48.7407 36.7419 49.2783 37.4588C49.961 36.9467 51.3919 35.654 51.8969 34.4176C51.499 35.4684 50.6255 37.4547 49.8156 38.2646C49.8156 38.3071 49.8491 38.3831 49.8961 38.4894C50.1462 39.0561 50.7767 40.4846 48.7411 42.294C49.1888 42.3836 50.2991 42.0254 51.1587 39.8764C51.3378 39.1601 51.8572 37.6737 52.5019 37.4588C52.1437 38.1751 51.4811 39.8227 51.696 40.6823C51.696 40.6823 51.105 41.8105 48.7411 43.0999L49.0097 44.7117C49.6365 44.7117 51.0513 44.9803 51.696 46.0548C52.5019 47.398 53.0391 48.2038 54.6509 47.9352C54.3822 48.6516 53.254 49.2784 50.8901 46.0548C50.2454 45.625 49.0097 45.7862 49.0097 45.7862C49.0992 46.2339 49.6007 47.3442 50.8901 48.2038C52.1795 49.0635 52.5019 50.1738 52.5019 50.6215C52.4123 51.2483 52.3944 52.5556 53.0391 52.7705C53.6838 52.9854 54.2032 53.5764 54.3822 53.845C54.0241 53.5764 53.1466 53.0391 52.5019 53.0391C51.8572 53.0391 51.696 51.2483 51.696 50.3529C51.696 49.9947 51.3736 49.1172 50.0842 48.4725L50.3528 54.9195C50.0842 56.1731 49.1172 58.9489 47.398 60.0234L47.398 60.0234C47.398 60.0234 47.398 60.0234 47.398 60.0234C47.398 60.0234 47.398 60.0234 47.3979 60.0234L47.3979 60.0234C45.6788 58.9489 44.7117 56.1731 44.4431 54.9195L44.7117 48.4725C43.4223 49.1172 43.1 49.9947 43.1 50.3529C43.1 51.2483 42.9388 53.0391 42.2941 53.0391C41.6494 53.0391 40.7719 53.5764 40.4137 53.845C40.5928 53.5764 41.1121 52.9854 41.7568 52.7705C42.4015 52.5556 42.3836 51.2483 42.2941 50.6215C42.2941 50.1738 42.6165 49.0635 43.9059 48.2038C45.1953 47.3442 45.6967 46.2339 45.7863 45.7862C45.7863 45.7862 44.5506 45.625 43.9059 46.0548C41.5419 49.2784 40.4137 48.6516 40.1451 47.9352C41.7568 48.2038 42.2941 47.398 43.1 46.0548C43.7447 44.9803 45.1595 44.7117 45.7863 44.7117L46.0549 43.0999C43.691 41.8105 43.1 40.6823 43.1 40.6823C43.3149 39.8227 42.6523 38.1751 42.2941 37.4588C42.9388 37.6737 43.4581 39.1601 43.6372 39.8764C44.4968 42.0254 45.6072 42.3836 46.0549 42.294C44.0193 40.4846 44.6498 39.0561 44.8999 38.4894C44.9468 38.3831 44.9804 38.3071 44.9804 38.2646C44.1705 37.4547 43.297 35.4684 42.8991 34.4176ZM42.8314 34.2352C42.8516 34.2958 42.8742 34.3567 42.8991 34.4176C42.8747 34.3531 42.8521 34.2922 42.8314 34.2352ZM51.9646 34.2352C51.9444 34.2958 51.9218 34.3567 51.8969 34.4176C51.9213 34.3531 51.9439 34.2922 51.9646 34.2352Z" fill="white"/>
</svg>
